<?xml version="1.0" encoding="utf-8"?>
<!-- Generator: Adobe Illustrator 21.0.2, SVG Export Plug-In . SVG Version: 6.00 Build 0)  -->
<svg version="1.1" id="Layer_1" xmlns="http://www.w3.org/2000/svg" xmlns:xlink="http://www.w3.org/1999/xlink" x="0px" y="0px"
	 viewBox="0 0 620.3 240" style="enable-background:new 0 0 620.3 240;" xml:space="preserve">
<style type="text/css">
	.st0{fill:#DB1F30;}
	.st1{fill:#FFFFFF;}
</style>
<g>
	<path class="st0" d="M241.9,34.8h45.9L234.6,117l57.6,88.3h-46.4l-36.3-56.1l-36.1,56.1h-45.9l57.3-87.3l-53.4-83.2H177l32.4,50.5
		L241.9,34.8z"/>
</g>
<polygon class="st0" points="93.5,205.5 159.8,205.5 209.8,120.1 167.8,57.6 141.1,67.6 141.8,124.2 133.8,158.9 "/>
<g>
	<path class="st1" d="M68.1,160.2c6.3,7.8,14.7,11.7,25.4,11.7c10.6,0,19.1-3.9,25.3-11.7c6.2-7.8,9.3-18.5,9.3-32V34.8h37.7v94.5
		c0,24.5-6.8,43.3-20.3,56.5c-13.5,13.1-30.9,19.7-52,19.7c-21.1,0-38.5-6.6-52.1-19.8c-13.6-13.2-20.4-32-20.4-56.3V34.8h37.7v93.3
		C58.7,141.7,61.9,152.3,68.1,160.2z"/>
</g>
<g>
	<path class="st1" d="M482.9,98l-46.2,93.3h-22.7L368.2,98v107.5h-38.1V34.8h51.5l44,93.8l44.2-93.8H521v170.7h-38.1V98z"/>
	<path class="st0" d="M606.1,34.8v33.9h-85v35.2h76.4v32.5h-76.4v35.4h87.7v33.7H483V34.8H606.1z"/>
</g>
</svg>
